# xmcd CD database file
#
# Track frame offsets:
#	150
#	23912
#	47510
#	69875
#	95322
#	118932
#	145440
#	163375
#	187550
#	215130
#	244787
#
# Disc length: 3603 seconds
#
# Revision: 1
# Processed by: cddbd v1.5.1PL2 Copyright (c) Steve Scherf et al.
# Submitted via: CDex 1.51
#
DISCID=990e110b
DTITLE=Lou Donaldson - The Complete Blue Note Sessions 1957-60 CD 6
DYEAR=2002
DGENRE=Jazz
TTITLE0=Mack the Knife
TTITLE1=Crosstown Shuffle
TTITLE2=Tangerine
TTITLE3=Blues for J. P.
TTITLE4=The Man I Love
TTITLE5=Politely
TTITLE6=It's You or No One
TTITLE7=The Truth
TTITLE8=Goose Grease
TTITLE9=Softly, As in a Morning Sunrise
TTITLE10=Way Down Upon the Swanee River
EXTD=YEAR: 2002
EXTT0=
EXTT1=
EXTT2=
EXTT3=
EXTT4=
EXTT5=
EXTT6=
EXTT7=
EXTT8=
EXTT9=
EXTT10=
PLAYORDER=
